<svg width="34" height="47" viewBox="0 0 34 47" fill="none" xmlns="http://www.w3.org/2000/svg">
<path d="M11.5088 36.2264L11.5088 36.2262C10.5616 34.7833 9.49859 33.3219 8.42735 31.8492C7.94468 31.1856 7.46035 30.5198 6.9842 29.8523C5.44256 27.6912 3.97229 25.4941 2.84715 23.2194C0.606102 18.6886 -0.253412 13.8826 2.45517 8.48511L2.45518 8.48509C4.79626 3.81938 10.0491 1.09914 15.5556 0.817155C21.0543 0.535563 26.6831 2.6927 29.7672 7.62751C33.2738 13.2389 32.9248 18.104 31.0591 22.6739C30.1196 24.9753 28.7939 27.2027 27.3646 29.4164C26.8872 30.1559 26.3963 30.8966 25.9051 31.6378C24.9358 33.1004 23.9652 34.5649 23.0947 36.0252L23.0946 36.0253C21.8883 38.0494 20.7252 40.1781 19.5704 42.2917C19.0729 43.2023 18.5768 44.1102 18.0795 45.0057C17.9003 45.3272 17.7503 45.5223 17.6322 45.6309C17.5752 45.6833 17.5343 45.7075 17.5103 45.7182C17.4887 45.7279 17.4806 45.7269 17.4805 45.7269L17.4805 45.7269C17.4794 45.7269 17.468 45.7266 17.4424 45.7138C17.4144 45.6999 17.3723 45.6723 17.3168 45.6203C17.2025 45.5132 17.0661 45.3358 16.9073 45.0705C16.6599 44.6554 16.4119 44.2383 16.1636 43.8208C14.5812 41.1599 12.9909 38.4855 11.5088 36.2264Z" fill="#EA4335" stroke="#A60D0D"/>
<path d="M16.7316 10.3569C19.9542 10.3569 22.5638 12.9582 22.5638 16.161C22.5638 19.3638 19.9542 21.965 16.7316 21.965C13.5091 21.965 10.8994 19.3638 10.8994 16.161C10.8994 12.9582 13.5091 10.3569 16.7316 10.3569Z" fill="white" stroke="#A60D0D"/>
</svg>
